<?xml version="1.0" standalone="no"?>
<!DOCTYPE svg PUBLIC "-//W3C//DTD SVG 20010904//EN"
 "http://www.w3.org/TR/2001/REC-SVG-20010904/DTD/svg10.dtd">
<svg version="1.0" xmlns="http://www.w3.org/2000/svg"
 width="16.000000pt" height="16.000000pt" viewBox="0 0 16.000000 16.000000"
 preserveAspectRatio="xMidYMid meet">
<metadata>
Created by potrace 1.11, written by Peter Selinger 2001-2013
</metadata>
<g transform="translate(0.000000,16.000000) scale(0.000320,-0.000320)"
fill="#000000" stroke="none">
<path d="M24360 49324 c-36 -2 -159 -8 -275 -14 -4435 -223 -8637 -2208
-11670 -5515 -1477 -1610 -2642 -3505 -3408 -5546 -639 -1699 -995 -3454
-1077 -5309 -13 -291 -13 -1018 0 -1230 159 -2624 1469 -6284 3922 -10959
2566 -4889 6460 -10977 11032 -17246 851 -1167 2093 -2825 2116 -2825 23 0
1265 1658 2116 2825 2580 3538 5025 7137 7066 10400 4190 6701 6760 12057
7598 15835 136 616 222 1160 276 1755 22 241 30 1051 15 1412 -27 623 -76
1160 -157 1733 -306 2158 -1009 4205 -2097 6105 -879 1537 -2041 2979 -3363
4175 -2820 2551 -6367 4078 -10139 4365 -435 33 -564 37 -1215 40 -371 1 -704
1 -740 -1z m1345 -4974 c88 -5 263 -19 388 -30 4468 -397 8370 -3268 10107
-7435 749 -1797 1051 -3756 885 -5725 -223 -2626 -1294 -5093 -3078 -7088
-188 -211 -732 -753 -941 -938 -1189 -1053 -2510 -1840 -3971 -2367 -995 -358
-2054 -587 -3115 -672 -622 -49 -1338 -49 -1960 0 -2475 198 -4842 1163 -6751
2752 -299 248 -499 432 -820 752 -503 503 -863 921 -1250 1453 -1235 1695
-2007 3672 -2248 5753 -88 755 -104 1600 -46 2345 263 3338 1855 6381 4448
8497 1661 1355 3661 2249 5772 2577 458 72 897 114 1465 140 143 7 956 -3
1115 -14z"/>
<path d="M24772 37829 c-1236 -67 -2980 -708 -5077 -1867 -825 -455 -1840
-1079 -2591 -1592 -98 -67 -185 -128 -192 -134 -11 -10 53 -57 330 -243 1843
-1236 3757 -2265 5243 -2818 796 -297 1440 -461 2100 -537 145 -17 683 -17
835 0 1288 142 2850 739 4875 1865 149 82 280 156 292 164 l22 15 4 -1159 3
-1158 22 -83 c83 -314 301 -545 612 -648 80 -26 95 -28 260 -29 153 0 185 3
253 23 282 81 514 301 608 575 15 45 33 111 38 147 7 43 11 627 11 1742 l0
1678 318 211 c174 117 327 220 340 230 l23 18 -103 71 c-169 117 -636 426
-888 587 -1846 1176 -3630 2080 -5017 2542 -726 242 -1329 370 -1888 401 -198
11 -224 11 -433 -1z m478 -2744 c153 -49 251 -107 364 -214 117 -113 200 -248
247 -406 29 -97 37 -292 16 -400 -53 -281 -234 -516 -492 -641 -139 -68 -224
-87 -385 -87 -161 0 -246 19 -385 87 -258 125 -439 360 -492 641 -21 108 -13
303 16 400 73 245 244 452 466 562 145 72 244 93 425 89 113 -3 149 -8 220
-31z"/>
<path d="M20500 28822 l0 -1477 193 -74 c891 -340 1915 -667 2707 -865 1019
-255 1692 -335 2270 -270 834 93 2165 504 3603 1112 l227 96 0 1478 c0 814 -4
1478 -9 1478 -4 0 -107 -47 -227 -104 -1304 -616 -2382 -961 -3414 -1090
-1561 -196 -3135 145 -5184 1123 -81 39 -152 71 -157 71 -5 0 -9 -620 -9
-1478z"/>
</g>
</svg>
